<svg id="Capa_1" enable-background="new 0 0 512 512" height="512" viewBox="0 0 512 512" width="512" xmlns="http://www.w3.org/2000/svg"><g><g><path d="m467 246.172c-8.284 0-15-6.716-15-15v-156.172c0-8.284 6.716-15 15-15s15 6.716 15 15v156.172c0 8.285-6.716 15-15 15z" fill="#eaf1ff"/><path d="m447 342h-382c-35.841 0-65-29.159-65-65s29.159-65 65-65h382c35.841 0 65 29.159 65 65s-29.159 65-65 65z" fill="#ffb454"/><g><path d="m447 212h-191v130h191c35.841 0 65-29.159 65-65s-29.159-65-65-65z" fill="#ff8659"/></g><path d="m436 452h-360c-8.284 0-15-6.716-15-15v-180c0-107.523 87.477-195 195-195s195 87.477 195 195v180c0 8.284-6.716 15-15 15z" fill="#f9f9f9"/><g><path d="m256 62v390h180c8.284 0 15-6.716 15-15v-180c0-107.523-87.477-195-195-195z" fill="#eaf1ff"/></g><path d="m334.261 377h-156.522c-23.052 0-41.739-18.687-41.739-41.739v-78.261c0-66.274 53.726-120 120-120 66.274 0 120 53.726 120 120v78.261c0 23.052-18.687 41.739-41.739 41.739z" fill="#d8f1fb"/><g><path d="m256 137v240h78.261c23.052 0 41.739-18.687 41.739-41.739v-78.261c0-66.274-53.726-120-120-120z" fill="#acceff"/></g><path d="m446 512h-380c-24.853 0-45-20.147-45-45 0-24.853 20.147-45 45-45h380c24.853 0 45 20.147 45 45 0 24.853-20.147 45-45 45z" fill="#ffb454"/><path d="m334.261 392h-156.522c-31.286 0-56.739-25.453-56.739-56.739v-78.261c0-74.439 60.561-135 135-135s135 60.561 135 135v78.261c0 31.286-25.453 56.739-56.739 56.739zm-78.261-240c-57.897 0-105 47.103-105 105v78.261c0 14.744 11.995 26.739 26.739 26.739h156.521c14.745 0 26.74-11.995 26.74-26.739v-78.261c0-57.897-47.103-105-105-105z" fill="#6b61b1"/><g><path d="m256 122v30c57.897 0 105 47.103 105 105v78.261c0 14.744-11.995 26.739-26.739 26.739h-78.261v30h78.261c31.286 0 56.739-25.453 56.739-56.739v-78.261c0-74.439-60.561-135-135-135z" fill="#453d81"/></g><path d="m467 90c-24.813 0-45-20.187-45-45s20.187-45 45-45 45 20.187 45 45-20.187 45-45 45z" fill="#ff8659"/></g><g><g><path d="m446 422h-190v90h190c24.853 0 45-20.147 45-45 0-24.853-20.147-45-45-45z" fill="#ff8659"/></g></g></g></svg>